<svg xmlns="http://www.w3.org/2000/svg" viewBox="0 0 324.32 86.42"><defs><style>.cls-1,.cls-2{fill:#1d1d1b;}.cls-2{fill-rule:evenodd;}</style></defs><g id="Camada_2" data-name="Camada 2"><g id="Layer_1" data-name="Layer 1"><path class="cls-1" d="M229.53,39.75h-.13c-.05-1.63-.15-3.27-.17-4.9s.08-3.22.05-4.82a7.84,7.84,0,0,0-.35-2,1,1,0,0,0-1.15-.81c-.87.06-1.34.33-1.45,1a9.3,9.3,0,0,0,0,1.67c.05,1.43.13,2.86.18,4.3.07,1.94.12,3.9.2,5.84.05,1.74.07,3.47.19,5.2.15,2.24.35,4.47.58,6.7A12.88,12.88,0,0,0,228,54.4a1.43,1.43,0,0,0,1.63.89A1.31,1.31,0,0,0,230.91,54c.12-1.33.17-2.67.26-4,.16-2.33.3-4.67.5-7,.15-1.55.36-3.09.59-4.63a40.71,40.71,0,0,1,1.78-7.3,14.53,14.53,0,0,1,1.16-2.42c.23-.41.54-.37.74,0a5.28,5.28,0,0,1,.42,1.37c.21,1.59.41,3.18.56,4.78.28,3,.52,6,.78,9.08.22,2.66.43,5.33.67,8a10.22,10.22,0,0,0,.36,1.91A1.61,1.61,0,0,0,240.05,55a1.36,1.36,0,0,0,1.51-.79,5.61,5.61,0,0,0,.69-1.57c.55-2.62,1-5.25,1.52-7.88.34-1.8.65-3.6,1-5.41.16,1,.27,1.95.35,2.93.11,1.3.17,2.6.29,3.91a1.67,1.67,0,0,0,1.17,1.55,1.69,1.69,0,0,0,1.88-.51,5.45,5.45,0,0,0,.89-1.45c1.18-3.16,2.32-6.32,3.47-9.48l1.29-3.45c0,.27.09.43.11.6.23,2.1.46,4.21.66,6.31s.36,4.28.57,6.41a37.92,37.92,0,0,0,2.18,9.69,16.21,16.21,0,0,0,1.33,2.71c.35.59.9.63,1.57.29a1.06,1.06,0,0,0,.58-1.36,2.55,2.55,0,0,0-.18-.53c-.29-.6-.63-1.18-.89-1.79a38.4,38.4,0,0,1-2.52-11.73c-.14-1.49-.26-3-.28-4.48-.05-3,0-6.07,0-9.1,0-1.25-.07-2.5-.21-3.73a1.47,1.47,0,0,0-1-1.34,1.67,1.67,0,0,0-1.91.8,12.13,12.13,0,0,0-.88,1.86c-.74,2.1-1.42,4.21-2.15,6.31s-1.55,4.35-2.35,6.51a12.89,12.89,0,0,1-.64,1.29l-.16,0a5.37,5.37,0,0,1-.15-.76c0-.52,0-1.05,0-1.58-.11-2.08-.22-4.16-.36-6.25a10.22,10.22,0,0,0-.29-2.07,1.55,1.55,0,0,0-2.69-.65,3.45,3.45,0,0,0-.73,1.47c-.35,1.58-.61,3.18-.91,4.77-.52,2.73-1,5.47-1.56,8.21-.15.8-.31,1.6-.47,2.4l-.15,0a2.31,2.31,0,0,1-.21-.66c-.06-.67-.06-1.36-.11-2q-.27-3.62-.56-7.22c-.19-2.33-.36-4.66-.58-7a10.8,10.8,0,0,0-.91-3.79,2.26,2.26,0,0,0-3.43-1.07,5.49,5.49,0,0,0-2.29,2.76A37.17,37.17,0,0,0,230,37.2c-.15.85-.31,1.7-.46,2.55"/><path class="cls-1" d="M178.9,31h-.1l-.12-.76c-.09-.61-.14-1.24-.28-1.84a1.07,1.07,0,0,0-1.18-.86,2.1,2.1,0,0,0-2.07,1.26,21.5,21.5,0,0,0-.81,2.38,80.58,80.58,0,0,0-2.94,16.08c-.11,1.15-.2,2.29-.27,3.45S171,52.89,171,54a1.39,1.39,0,0,0,2.74.32,5.19,5.19,0,0,0,.14-1.11c0-1.2,0-2.4,0-3.59a21.2,21.2,0,0,1,.12-2.25c.23-2.21.42-4.43.76-6.63.28-1.82.74-3.62,1.13-5.43a2.14,2.14,0,0,1,.18-.44,1.48,1.48,0,0,1,.17.71c0,1.31,0,2.62-.06,3.93,0,2.32,0,4.63,0,6.95,0,.88,0,1.75-.06,2.62,0,.64-.05,1.28,0,1.92a1.2,1.2,0,0,0,1.11,1.23c1.24.11,1.55-.43,1.67-1a7.87,7.87,0,0,0,.09-1.08c.09-1.64.12-3.3.3-4.94.29-2.8.63-5.6,1.06-8.38.25-1.67.7-3.32,1.06-5h.15c0,.1.07.19.08.28.17,1.44.31,2.88.48,4.32.27,2.52.54,5,.85,7.56a32,32,0,0,0,2.64,9.84,4.93,4.93,0,0,0,1.73,2.39,1.17,1.17,0,0,0,1.4-.08,1.09,1.09,0,0,0,.43-1.36,8,8,0,0,0-.82-1.62,14.08,14.08,0,0,1-1.92-4.34A42.39,42.39,0,0,1,185,40.62c-.21-3-.38-6-.53-9.06-.08-1.31-.05-2.62-.12-3.93a14,14,0,0,0-.27-1.8,1.13,1.13,0,0,0-.85-.92,2,2,0,0,0-2.62,1.2c-.36,1.06-.76,2.11-1.13,3.17-.19.57-.37,1.15-.55,1.72"/><path class="cls-1" d="M266.45,42.56c-.11-1.21-.23-2.33-.32-3.45-.19-2.38-.39-4.78-.56-7.17s-.33-4.88-.47-7.32c-.11-1.88-.2-3.76-.28-5.65s-.16-3.8-.19-5.71c0-2.68,0-5.38,0-8.07,0-.69.05-1.4,0-2.09a1.19,1.19,0,0,0-1.34-1.2c-.91,0-1.45.34-1.53,1.14a12.53,12.53,0,0,0-.07,2.29c.14,2.11.36,4.22.51,6.33.13,1.79.2,3.58.29,5.37s.19,3.58.28,5.37.19,3.48.28,5.23c.13,2.19.25,4.38.38,6.58s.25,4.17.39,6.25.3,4.13.47,6.2a24.15,24.15,0,0,0,.32,2.54,1.2,1.2,0,0,0,1.14,1,1.49,1.49,0,0,0,1.59-.75,7.23,7.23,0,0,0,.58-1.37c.49-1.6.92-3.23,1.43-4.83a7.32,7.32,0,0,1,3.33-4.36,1.83,1.83,0,0,1,2.14.05,5.34,5.34,0,0,1,1.78,2.24,8.08,8.08,0,0,1,.57,4.21,7.13,7.13,0,0,1-3.26,5.51,15.28,15.28,0,0,1-5.83,2.15c-1.27.24-2.58.33-3.61,1.26-.51.45-.73.82-.58,1.26a1.36,1.36,0,0,0,1.34.94,4.4,4.4,0,0,0,1-.18,49.11,49.11,0,0,0,7.75-2.54,10.83,10.83,0,0,0,3.75-2.66,9.9,9.9,0,0,0,2.28-5.4,10,10,0,0,0-1.76-7.36,5.55,5.55,0,0,0-2.83-2.22,5.64,5.64,0,0,0-4.16.54A8.32,8.32,0,0,0,267.94,40c-.51.81-1,1.66-1.49,2.57"/><path class="cls-1" d="M70.27,17.85a1.52,1.52,0,0,0,.51,1.3,1.44,1.44,0,0,0,1.42,0,1.65,1.65,0,0,0,.54-1.73,1.14,1.14,0,0,0-.86-1.09l-.14,0c-1-.08-1.47.42-1.47,1.51"/><path class="cls-2" d="M16.43,0l.63.26a3.62,3.62,0,0,1,1.52,1.53A15.59,15.59,0,0,1,20.31,6c.69,2.46,1.41,4.91,2,7.4.45,2.09.75,4.22,1,6.35.27,2.4.4,4.81.58,7.22.06.88.07,1.77.1,2.66,0,.67.07,1.34.06,2a75.85,75.85,0,0,1-1.37,14.5c-.46,2.19-1,4.37-1.52,6.54a8.64,8.64,0,0,0-.11,4c.28,1.34.57,2.68.88,4.11a3,3,0,0,0,.42-.28c1.68-1.65,3.37-3.29,5-5a13.43,13.43,0,0,0,1.83-2.29,4.8,4.8,0,0,0,.61-1.93,80.35,80.35,0,0,1,1.8-11.85A31.44,31.44,0,0,1,35,30.63,10.47,10.47,0,0,1,38.19,27a3.81,3.81,0,0,1,.84-.4,1.61,1.61,0,0,1,1.95.7,4.84,4.84,0,0,1,.81,2.55,18.45,18.45,0,0,1-.86,5.76,49.74,49.74,0,0,1-7.07,15.2c-.38.55-.79,1.09-1.17,1.64A4.44,4.44,0,0,0,32,55.15a29.82,29.82,0,0,0,1.72,9.94,16.3,16.3,0,0,0,2.18,4.07,6.05,6.05,0,0,0,.74.78c.4.35.75.29,1-.21a16.85,16.85,0,0,0,.61-1.86c1.66-5.87,3.3-11.74,5-17.62,1-3.35,2-6.69,2.88-10,.76-2.74,1.43-5.51,2.12-8.28a1.77,1.77,0,0,1,2.42-1.49,1.14,1.14,0,0,1,.92.95,22.17,22.17,0,0,1,.14,4.95c0,.37,0,.75,0,1.13,0,2.1,0,4.21,0,6.21.2-.66.43-1.43.67-2.19Q54.36,35,56.4,28.63c.25-.8.48-1.62.78-2.4a1.51,1.51,0,0,1,2.55-.56,2,2,0,0,1,.4,1.85c-.35,1.77-.81,3.52-1.12,5.3-.65,3.74-1.29,7.48-1.83,11.24-.28,1.94-.32,3.91-.49,5.86a29.86,29.86,0,0,0,.22,5.83,3.34,3.34,0,0,0,.36,1.2c.76,1.38,1.95,1.61,3.39.68a10.78,10.78,0,0,0,3.08-3.23,32.7,32.7,0,0,0,4.34-10.1,61.37,61.37,0,0,0,1.68-9c.17-1.55.2-3.11.3-4.67a4.68,4.68,0,0,1,.09-.83,1.42,1.42,0,0,1,1.9-1.06,1.32,1.32,0,0,1,.68.8,6.27,6.27,0,0,1,.14,1.62c0,3.79-.08,7.57-.11,11.36,0,1.76-.08,3.53,0,5.28a26.54,26.54,0,0,0,.7,5.82c.48,1.64,1.73,2,3.17,1.36a6.39,6.39,0,0,0,2.36-2,22.43,22.43,0,0,0,3.25-5.81A47.55,47.55,0,0,0,85.07,37,21.59,21.59,0,0,0,85,31c-.27-2.14-.47-4.3-.71-6.45a11.13,11.13,0,0,1,.09-3.64,1.82,1.82,0,0,1,2.32-1.59,1.2,1.2,0,0,1,.63.42,4.27,4.27,0,0,1,.68,2.62c0,1.78,0,3.57,0,5.35,0,1.34,0,2.68.08,4a23.53,23.53,0,0,0,1.49,5.81,63.31,63.31,0,0,1,2.22,7.66,22,22,0,0,1,.09,8.55c.81-.7,1.57-1.31,2.28-2a57.88,57.88,0,0,0,6.83-7.51,6,6,0,0,0,1.25-3.36A62.47,62.47,0,0,1,105.09,25a8,8,0,0,1,1.73-3.18,2.42,2.42,0,0,1,3.79.55,5.51,5.51,0,0,1,.56,2.9,26,26,0,0,1-2.31,9.3A49.43,49.43,0,0,1,106,39.86a12.1,12.1,0,0,0-1.74,5.71,47.14,47.14,0,0,0,1.44,13.33,28.81,28.81,0,0,0,4.87,10.28,7.67,7.67,0,0,0,.74.77c.25.26.52.5.75.78.6.7.61,1,.11,1.64a1.36,1.36,0,0,1-1.83.36,5.71,5.71,0,0,1-1.85-1.84,33.4,33.4,0,0,1-5.38-12.64c-.41-2-.65-4-.87-6-.13-1.32-.07-2.68-.11-4a4.43,4.43,0,0,0-.12-.88c-.09-.39-.34-.49-.64-.23a7.43,7.43,0,0,0-1.17,1.21,44.62,44.62,0,0,1-5.48,6.09c-1.89,1.79-3.88,3.48-5.86,5.18a33.17,33.17,0,0,1-3.25,2.52,10.69,10.69,0,0,1-2.41,1.08c-.69.24-1.64-.48-1.51-1.1a1.86,1.86,0,0,1,.82-1.3l2-1.34a11.14,11.14,0,0,0,5.13-8.55A19.7,19.7,0,0,0,88.34,42c-.3-.81-.66-1.61-1-2.42a6.85,6.85,0,0,0-.36-.61c-.09.36-.16.59-.21.81a37.81,37.81,0,0,1-4.33,12.52,13.09,13.09,0,0,1-4.61,4.88A4.51,4.51,0,0,1,72.77,57a5.82,5.82,0,0,1-1.87-3.47,24.64,24.64,0,0,1-.45-5.81,8.93,8.93,0,0,0-.11-1.26,2.36,2.36,0,0,0-.17-.46H70c-.11.29-.24.56-.33.85A43.86,43.86,0,0,1,66,55.5a11.71,11.71,0,0,1-4.48,4.67,5.54,5.54,0,0,1-3.6.73,4.14,4.14,0,0,1-3-2.58,8.77,8.77,0,0,1-.85-4.18c.11-2.75.29-5.51.46-8.26.1-1.38.25-2.76.38-4.14a.45.45,0,0,0-.13-.34q-1.16,4.22-2.32,8.45c-.44,1.59-.87,3.18-1.32,4.77a1.78,1.78,0,0,1-.86,1.17,1.29,1.29,0,0,1-2-1.11c-.06-1,0-2.06,0-3.08,0-.67.06-1.34.08-2,0-1.24.06-2.47.09-3.7.06-1.84.14-3.68.19-5.52a9.91,9.91,0,0,0-.12-1.08h-.14c-.2.68-.41,1.35-.59,2-1.26,4.65-2.55,9.28-3.73,14-1,3.84-1.78,7.73-2.69,11.6a18.4,18.4,0,0,1-1.63,4.71,2.83,2.83,0,0,1-4.45.88,9,9,0,0,1-2.41-3.07,26.69,26.69,0,0,1-2.66-8.48c-.19-1.18-.31-2.37-.49-3.56,0-.16-.13-.4-.25-.43a.59.59,0,0,0-.47.2C28.19,58,27.4,59,26.5,59.81c-1.13,1-2.33,2-3.53,2.93a1.18,1.18,0,0,0-.46,1.3c.31,1.43.6,2.86.84,4.31a13.63,13.63,0,0,0,1.32,3.87c.28.58.58,1.15.83,1.73a1.32,1.32,0,0,1-.12,1.38,1.41,1.41,0,0,1-1.37.38,2,2,0,0,1-1.74-1.51,31.07,31.07,0,0,1-.75-3.31c-.57-3-1.1-6-1.63-9-.17-.93-.28-1.87-.45-2.81a2.54,2.54,0,0,0-.31-.67,2.69,2.69,0,0,0-.51.5c-1,1.5-1.88,3.07-3,4.48a11.89,11.89,0,0,1-5.92,4.25,6.82,6.82,0,0,1-8.51-4A18.43,18.43,0,0,1,.1,58.83c0-.11-.07-.22-.1-.33V54.18s.08-.06.09-.09c.09-.79.18-1.58.3-2.36a17.37,17.37,0,0,1,2.29-6.67c1.9-3,4.48-4.8,8.21-4.49a8.06,8.06,0,0,1,3.54,1.1A1.47,1.47,0,0,1,15,43.53a1,1,0,0,1-.4.37A1.92,1.92,0,0,1,13,44c-.53-.19-1.06-.38-1.59-.55a4.81,4.81,0,0,0-6.09,2.26A19.73,19.73,0,0,0,3.63,62.5c1,2.72,3.22,3.7,5.92,2.7a10.71,10.71,0,0,0,4.24-3.07,23.8,23.8,0,0,0,4.49-8.08,2.89,2.89,0,0,0,.15-1.27c-.12-1-.33-2-.47-3-.58-4-1.17-7.91-1.71-11.87-.43-3.22-.82-6.45-1.19-9.69q-.44-3.8-.75-7.62c-.2-2.37-.33-4.75-.47-7.13-.09-1.67-.15-3.33-.19-5,0-1.51-.09-3,0-4.53S13.81,1.18,15.16.3c.12-.09.23-.2.34-.3ZM20,48.54c3.18-14.85,2.79-29.46-3.05-43.68-1.15,14.71.68,29.21,3.05,43.68M38.57,30.67A26.36,26.36,0,0,0,34.35,39c-.76,2.48-1.85,8.18-1.72,9.1l.08-.05c.28-.44.56-.86.83-1.3A33.22,33.22,0,0,0,38,37a16,16,0,0,0,.57-6.28m66.78,5.83c1.72-2.34,3.42-9.1,2.69-10.66a26.74,26.74,0,0,0-2.69,10.66"/><path class="cls-2" d="M134.16,74c3.52-6.22,7.48-12.15,11.49-18,1.5-2.19,2.95-4.4,4.37-6.65a5.88,5.88,0,0,0,.74-2c.21-1.23-.6-2.22-2.07-2.48a35.71,35.71,0,0,0-4.13-.45c-1.52-.1-3.06-.08-4.59-.11s-3-.05-4.54-.1a13.51,13.51,0,0,1-4.62-.86,2.3,2.3,0,0,1-1.6-2.2,7.74,7.74,0,0,1,.14-1.67A23.9,23.9,0,0,1,133,30.75a21.74,21.74,0,0,1,6-6.38,5.53,5.53,0,0,1,3.42-1.06,3,3,0,0,1,2.75,2.1,6.12,6.12,0,0,1,.12,1.76,17.67,17.67,0,0,1-1.71,6,42.88,42.88,0,0,1-4.38,7.34,2.76,2.76,0,0,0-.47,1.24c-.07.55.27.82.81.75A5.21,5.21,0,0,0,143.81,40c.92-1.65,1.84-3.29,2.69-5a24.28,24.28,0,0,0,2.85-8.93c.17-1.91-.39-3.57-2.46-4.41a8.05,8.05,0,0,0-4.83-.29,19.37,19.37,0,0,0-10.46,6.34A26.16,26.16,0,0,0,125.5,40a5.61,5.61,0,0,0-.06,3,4.1,4.1,0,0,0,2.86,2.61,19,19,0,0,0,5.71.82c1.78.06,2.81,0,4.59,0h2.75c1.37,0,1.24.2,2.61.26a12.4,12.4,0,0,1,2.18.36c.63.14.79.44.56,1a10.34,10.34,0,0,1-.88,1.8q-4.94,7.89-9.92,15.76l-2.86,5s-1.74,2.17-1.41,3.32S134.16,74,134.16,74Z"/><path class="cls-2" d="M178.9,31c.18-.57.36-1.15.55-1.72.37-1.06.77-2.11,1.13-3.17a2,2,0,0,1,2.62-1.2,1.13,1.13,0,0,1,.85.92,14,14,0,0,1,.27,1.8c.07,1.31,0,2.62.12,3.93.15,3,.32,6,.53,9.06a42.39,42.39,0,0,0,1.43,8.21,14.08,14.08,0,0,0,1.92,4.34,8,8,0,0,1,.82,1.62,1.09,1.09,0,0,1-.43,1.36,1.17,1.17,0,0,1-1.4.08,4.93,4.93,0,0,1-1.73-2.39A32,32,0,0,1,182.94,44c-.31-2.52-.58-5-.85-7.56-.17-1.44-.31-2.88-.48-4.32,0-.09-.06-.18-.08-.28h-.15c-.36,1.65-.81,3.3-1.06,5-.43,2.78-.77,5.58-1.06,8.38-.18,1.64-.21,3.3-.3,4.94a7.87,7.87,0,0,1-.09,1.08c-.12.58-.43,1.12-1.67,1A1.2,1.2,0,0,1,176.09,51c0-.64,0-1.28,0-1.92,0-.87,0-1.74.06-2.62,0-2.32,0-4.63,0-6.95,0-1.31.05-2.62.06-3.93a1.48,1.48,0,0,0-.17-.71,2.14,2.14,0,0,0-.18.44c-.39,1.81-.85,3.61-1.13,5.43-.34,2.2-.53,4.42-.76,6.63a21.2,21.2,0,0,0-.12,2.25c0,1.19,0,2.39,0,3.59a5.19,5.19,0,0,1-.14,1.11A1.39,1.39,0,0,1,171,54c0-1.09.06-2.19.12-3.27s.16-2.3.27-3.45a80.58,80.58,0,0,1,2.94-16.08,21.5,21.5,0,0,1,.81-2.38,2.1,2.1,0,0,1,2.07-1.26,1.07,1.07,0,0,1,1.18.86c.14.6.19,1.23.28,1.84l.12.76h.1"/><path class="cls-1" d="M169.06,28.11a3.28,3.28,0,0,0-.86-.21c-.85-.12-1.71-.22-2.55-.32,0-.09-.05-.18-.07-.28.63-.37,1.23-.77,1.87-1.1s1.25-.49,1.86-.75A1,1,0,0,0,170,24.4,1.48,1.48,0,0,0,168.09,23a10.65,10.65,0,0,0-4.23,2,21.45,21.45,0,0,0-5.41,6.39,14.93,14.93,0,0,0-1.85,3.86c-.44,1.75-1,3.46-1.5,5.2a33.27,33.27,0,0,0-1.47,9.76,10.66,10.66,0,0,0,1.13,4.73,4,4,0,0,0,4.1,2.36,7.15,7.15,0,0,0,4.53-2.58,15.73,15.73,0,0,0,2.36-4,29.94,29.94,0,0,0,2.5-11.56,37.57,37.57,0,0,0-.45-6.44c-.21-1.4-.14-1.5,1.19-1.95a1.42,1.42,0,0,0,1-1.48c0-.49-.32-.89-1-1.12m-6.72,23.28a6.51,6.51,0,0,1-2.14,2.46,3.78,3.78,0,0,1-1.28.51c-.36.08-.77.32-1.09-.16s-.68-.62-.8-1a12,12,0,0,1-.52-2.36,14.72,14.72,0,0,1,0-1.88,33.7,33.7,0,0,1,3.2-14.3c.48-1,1-2,1.56-2.92a3.39,3.39,0,0,1,.8-.85,1.54,1.54,0,0,1,2.27.27,5.47,5.47,0,0,1,.93,2.95c.14,1.66.31,3.33.29,5a26.92,26.92,0,0,1-3.2,12.28"/><path class="cls-2" d="M70.27,17.85c0-1.09.49-1.59,1.47-1.51l.14,0a1.14,1.14,0,0,1,.86,1.09,1.65,1.65,0,0,1-.54,1.73,1.44,1.44,0,0,1-1.42,0,1.52,1.52,0,0,1-.51-1.3"/><path class="cls-1" d="M221.29,57.57a6.07,6.07,0,0,0-1.15-1.41,6.55,6.55,0,0,1-2.14-3,7.3,7.3,0,0,1-.5-4c.22-.91.63-1.78.92-2.68a50.72,50.72,0,0,0,2.25-16,9.87,9.87,0,0,0-.63-3.52,3,3,0,0,0-2-2.09,3.2,3.2,0,0,0-4,2.32,13.31,13.31,0,0,0-.49,4.66c.11,3,.18,6.05.3,9.07,0,1.09.18,2.17.26,3.26.08,1.34.25,2.7.2,4A6.48,6.48,0,0,1,211,53.61a3.13,3.13,0,0,1-4.34-.94,8.71,8.71,0,0,1-1.05-2.17,34.53,34.53,0,0,1-1.29-9.09c-.07-2.7,0-5.4.07-8.11,0-.45,0-.91,0-1.36,0-1.41.11-2.84,0-4.26a1.39,1.39,0,0,0-2.07-1.3,1.57,1.57,0,0,0-.9,1c-.15.48-.28,1-.39,1.48q-1.8,8.11-3.59,16.23l-.06,0c0-1.41,0-2.84,0-4.25l.09-8.4a24.68,24.68,0,0,0-.28-5.08,1.51,1.51,0,0,0-1.19-1.3,1.93,1.93,0,0,0-2.47,1.05A27.71,27.71,0,0,0,192,31.5a42.93,42.93,0,0,0-.83,4.82c-.24,1.79-.43,3.59-.58,5.38-.11,1.43-.18,2.87-.21,4.3,0,1.59-.05,3.19,0,4.78a8.78,8.78,0,0,0,.48,2.12,1,1,0,0,0,1.06.69,1.67,1.67,0,0,0,1.42-1.78c-.15-1.64-.34-3.3-.33-4.94,0-2.46.16-4.92.35-7.38.12-1.61.41-3.2.66-4.81a13.83,13.83,0,0,1,.45-1.61l.21,0v2.24q0,6.25-.07,12.52c0,1.57,0,3.13,0,4.7,0,.88-.06,1.77,0,2.66.11,1.32.92,1.84,2.21,1.5a1.88,1.88,0,0,0,1.33-1.65q1.1-5.48,2.17-10.94c.33-1.66.64-3.33,1-5a5.59,5.59,0,0,1,.15.88c.23,1.88.47,3.77.7,5.65.16,1.29.24,2.61.47,3.89a10.11,10.11,0,0,0,2.87,5.72A4.74,4.74,0,0,0,210,56.69a7.56,7.56,0,0,0,3.89-2.37c.44-.47,1-.87,1.41-1.29a10.73,10.73,0,0,0,2,4.15,6.5,6.5,0,0,0,2.49,2.07,1.38,1.38,0,0,0,1.51-.32A1.1,1.1,0,0,0,221.29,57.57ZM216.82,42.5a.61.61,0,0,1-.19.27h0c-.38-5-.89-10,.23-15l0,0a4.82,4.82,0,0,1,.8,1.89c.11.4.2.82.28,1.23a16.55,16.55,0,0,1,.27,3.37c0,.13,0,.27,0,.4A26,26,0,0,1,216.82,42.5Z"/><path class="cls-2" d="M323.16,31.42a3.44,3.44,0,0,0-4.29-1.54,3.84,3.84,0,0,0-2.1,2.21,22.59,22.59,0,0,0-1.52,6.43,12.51,12.51,0,0,1-.32,1.83,1,1,0,0,1-.63.58A4.49,4.49,0,0,1,310.06,39a8.17,8.17,0,0,1,5.15-11.76,3.23,3.23,0,0,0,.81-.34c.75-.51.81-1.59.09-1.83a4.93,4.93,0,0,0-2.1-.29,7.64,7.64,0,0,0-6,4.45c-.31.65-.58,1.33-.87,2a4.93,4.93,0,0,0-2.77-.75,6.3,6.3,0,0,0-5,2.56,10.58,10.58,0,0,0-1.69,4.51,35.89,35.89,0,0,0-.64,7.39c0,2,0,4,.09,6v.52c-.11,0-.16,0-.19,0a14.88,14.88,0,0,1-5-5,4.26,4.26,0,0,1,.17-4.77,15,15,0,0,0,1.12-1.94,53.92,53.92,0,0,0,3-7.66,14.21,14.21,0,0,0,.9-4.23,2.7,2.7,0,0,0-3.76-2.62,8.79,8.79,0,0,0-4.13,3.46,14.91,14.91,0,0,0-2,7.1,19,19,0,0,0,.41,4.93,10.2,10.2,0,0,1,.08,3.53,10.23,10.23,0,0,1-2.25,4.3c-.68.87-1.42,1.71-2.06,2.61a1.27,1.27,0,0,0,1.82,1.72,8.22,8.22,0,0,0,2.06-2.52c.56-.8,1.12-1.61,1.72-2.39.39-.52.52-.49.87,0a24.48,24.48,0,0,0,4.65,5.35,7.56,7.56,0,0,0,3.19,1.8c1.17.27,2.08-.13,2.29-1.1a9.64,9.64,0,0,0,.2-2.27c-.07-1.81-.24-3.61-.32-5.42a27.37,27.37,0,0,1,.07-3c.09-1.7.22-3.41.4-5.12a8.2,8.2,0,0,1,1-3.32A2.56,2.56,0,0,1,304,33.42a5.07,5.07,0,0,0,2.65,0,12.4,12.4,0,0,0,.14,4.26,6.53,6.53,0,0,0,3.4,4.89,13.45,13.45,0,0,0,3,.79,1.31,1.31,0,0,1,1.2,1.36c-.05,1-.1,2.05-.23,3.07-.27,2.26-.62,4.5-.88,6.76-.38,3.22-.66,6.44-1.05,9.66-.44,3.61-.89,7.23-1.45,10.82a16.39,16.39,0,0,1-1.94,5.87,5.93,5.93,0,0,1-3.67,3,8.74,8.74,0,0,1-3.94-.09,34.65,34.65,0,0,1-6.2-2,2.22,2.22,0,0,0-2,0c-.36.2-.47.51-.22.81a2.86,2.86,0,0,0,.87.83c1.14.56,2.3,1.1,3.5,1.55a26.4,26.4,0,0,0,6.23,1.39,5.85,5.85,0,0,0,4.76-1.28,11.74,11.74,0,0,0,3-4,20.67,20.67,0,0,0,1.57-5.6c.61-4.12,1.15-8.26,1.7-12.39.31-2.43.58-4.86.87-7.28.4-3.28.83-6.55,1.21-9.83A4,4,0,0,1,319,42.46c.33-.14.65-.3,1-.45A7.25,7.25,0,0,0,323.16,31.42Zm-33,8.48H290c-.08-.76-.19-1.51-.23-2.27a12.92,12.92,0,0,1,1.05-6.43A7,7,0,0,1,293.61,28a1.59,1.59,0,0,1,.29-.15l.24-.06a4.41,4.41,0,0,1,0,.63,35.76,35.76,0,0,1-3.9,11.4Zm31.29-3.58c-.33,1.43-1.29,2.43-2.15,2.24s-1.28-1.52-1-3,1.28-2.43,2.14-2.24S321.76,34.89,321.44,36.32Z"/></g></g></svg>