<svg xmlns:xlink="http://www.w3.org/1999/xlink" xmlns="http://www.w3.org/2000/svg" viewBox="0 0 474.3 41.56" width="474.3"  height="41.56" ><title>Ativo 3</title><g id="Camada_2" data-name="Camada 2"><g id="Camada_1-2" data-name="Camada 1"><path d="M4.81,26.73l-2,9a11.27,11.27,0,0,0-.33,2.11,2.45,2.45,0,0,0,.46,1.56,1.46,1.46,0,0,0,1.22.6,2.28,2.28,0,0,0,1.33-.42,13.2,13.2,0,0,0,1.85-1.74l.33-.33.4.41a17.1,17.1,0,0,1-2.66,2.74,3.52,3.52,0,0,1-2.09.8,2.68,2.68,0,0,1-2.07-.85,3.22,3.22,0,0,1-.77-2.23,16,16,0,0,1,.41-3l1.75-8.67H0l.19-.92H2.78L4.3,18.52l2.59-1L5,25.81H9.38l-.19.92Z"/><path d="M9.46,41.43l7.18-37,2.84-1.38L12,36a.77.77,0,0,0,.1-.24l.63-1.41a23.17,23.17,0,0,1,4-6.27c1.52-1.64,2.91-2.46,4.19-2.46a2.15,2.15,0,0,1,1.65.67,2.5,2.5,0,0,1,.62,1.77,7.37,7.37,0,0,1-.3,1.75L22.61,31l-.83,3.29-.25,1.06a11.08,11.08,0,0,0-.4,2.48,2.78,2.78,0,0,0,.3,1.39.87.87,0,0,0,.78.53c.56,0,1.45-.67,2.67-2l.41.38-.24.3a24.26,24.26,0,0,1-2.29,2.44,2.19,2.19,0,0,1-1.33.64A1.73,1.73,0,0,1,20,40.57a3.74,3.74,0,0,1-.59-2.09,16.6,16.6,0,0,1,.35-2.56l1-5.73A11.35,11.35,0,0,0,21,28.3a1.18,1.18,0,0,0-.3-.87,1.13,1.13,0,0,0-.81-.29,3.68,3.68,0,0,0-2.29,1.17A15.46,15.46,0,0,0,15,31.57,28.13,28.13,0,0,0,12.73,36a25.5,25.5,0,0,0-1.46,4.85Z"/><path d="M37.85,37l.49.41a13,13,0,0,1-3.27,3.2,6.38,6.38,0,0,1-3.43,1,4.51,4.51,0,0,1-3.51-1.45,5.51,5.51,0,0,1-1.33-3.87,10.7,10.7,0,0,1,1.29-4.93,13.2,13.2,0,0,1,3.21-4.13,6,6,0,0,1,3.82-1.64,2.64,2.64,0,0,1,1.83.65,2.18,2.18,0,0,1,.71,1.68A5.81,5.81,0,0,1,35.39,32a19,19,0,0,1-6.18,3.54,3.43,3.43,0,0,0,0,.48,4.41,4.41,0,0,0,1,3,3.32,3.32,0,0,0,2.64,1.18,4.36,4.36,0,0,0,2.46-.8A11.77,11.77,0,0,0,37.85,37Zm-8.64-2A14.63,14.63,0,0,0,33.69,32a9.85,9.85,0,0,0,1.7-2.33A4.8,4.8,0,0,0,36,27.46c0-.84-.39-1.27-1.16-1.27q-1.76,0-3.55,2.77A13.18,13.18,0,0,0,29.21,34.92Z"/><path d="M90.09,34.09a16.54,16.54,0,0,1-6.52,5.47,19.4,19.4,0,0,1-8,1.66,21.43,21.43,0,0,1-8.21-1.52,18.51,18.51,0,0,1-6.4-4.26,19.55,19.55,0,0,1-4.15-6.53,22.44,22.44,0,0,1-1.49-8.27,22.24,22.24,0,0,1,1.49-8.24,19.76,19.76,0,0,1,4.15-6.51,19,19,0,0,1,6.4-4.28A21.07,21.07,0,0,1,75.54.06,19.56,19.56,0,0,1,83,1.47,14.78,14.78,0,0,1,89,6.2l-3,2.49a10.83,10.83,0,0,0-4.68-4,14.17,14.17,0,0,0-5.84-1.27A17.31,17.31,0,0,0,68.65,4.7a15.52,15.52,0,0,0-5.23,3.66,16.38,16.38,0,0,0-3.32,5.47,19.72,19.72,0,0,0-1.16,6.81,19.67,19.67,0,0,0,1.16,6.81,16.28,16.28,0,0,0,3.32,5.47,15.52,15.52,0,0,0,5.23,3.66,17.31,17.31,0,0,0,6.89,1.32,14.51,14.51,0,0,0,6.23-1.46,15.43,15.43,0,0,0,2.9-1.88,12.18,12.18,0,0,0,2.44-2.74Z"/><path d="M124.62,25.23a24.66,24.66,0,0,1-.72,6,13.84,13.84,0,0,1-2.4,5.09,12.12,12.12,0,0,1-4.43,3.55,17.79,17.79,0,0,1-13.45,0,12.09,12.09,0,0,1-4.42-3.55,13.7,13.7,0,0,1-2.41-5.09,24.66,24.66,0,0,1-.72-6V1.05h3.65V24.29a27.61,27.61,0,0,0,.39,4.48,13.69,13.69,0,0,0,1.52,4.43,9.43,9.43,0,0,0,3.21,3.38,12.14,12.14,0,0,0,11,0,9.34,9.34,0,0,0,3.21-3.38,13.45,13.45,0,0,0,1.52-4.43,27.61,27.61,0,0,0,.39-4.48V1.05h3.65Z"/><path d="M134.64,1.05h10.29q.78,0,2.1.06a22.73,22.73,0,0,1,2.88.33,17.81,17.81,0,0,1,3.15.89,8.76,8.76,0,0,1,2.88,1.77A9.06,9.06,0,0,1,158,7a10,10,0,0,1,.83,4.31,9.78,9.78,0,0,1-1,4.65,8.81,8.81,0,0,1-2.43,3,10.24,10.24,0,0,1-3.24,1.69,21.06,21.06,0,0,1-3.37.78l11.4,18.81h-4.15l-11-18.59h-6.81V40.23h-3.65Zm3.65,17.27H146a12.76,12.76,0,0,0,4.67-.72,7.84,7.84,0,0,0,2.8-1.77,5.64,5.64,0,0,0,1.35-2.27,7.87,7.87,0,0,0,.36-2.22,7.86,7.86,0,0,0-.36-2.21,5.64,5.64,0,0,0-1.35-2.27,7.84,7.84,0,0,0-2.8-1.77A12.76,12.76,0,0,0,146,4.37h-7.75Z"/><path d="M167.45,1.05h3.65V36.91h18.26v3.32H167.45Z"/><path d="M197.66,23.35,183.27,1.05h4.38l11.84,18.59L211.6,1.05h4.1l-14.39,22.3V40.23h-3.65Z"/><path d="M240.3,1h24V4.32H244V18.26h19v3.32H244V36.85h21.2v3.32H240.3Z"/><path d="M274.16,32.92a9.39,9.39,0,0,0,3.74,3.71,11,11,0,0,0,5.23,1.22,10.41,10.41,0,0,0,3.43-.56,8.42,8.42,0,0,0,2.79-1.55,7.12,7.12,0,0,0,1.88-2.4,7,7,0,0,0,.7-3.18,6.14,6.14,0,0,0-.86-3.38,6.88,6.88,0,0,0-2.3-2.18,16.82,16.82,0,0,0-3.23-1.47c-1.2-.41-2.44-.81-3.71-1.22a38.18,38.18,0,0,1-3.71-1.38,12.53,12.53,0,0,1-3.24-2,8.92,8.92,0,0,1-2.29-3.13,11,11,0,0,1-.86-4.65,10.13,10.13,0,0,1,1-4.62,10,10,0,0,1,2.77-3.37,12.37,12.37,0,0,1,4-2.05A16.26,16.26,0,0,1,284.29,0a15.53,15.53,0,0,1,5.95,1.13A11.38,11.38,0,0,1,295,4.92l-3.15,2.27a9.33,9.33,0,0,0-3.24-2.9,9.34,9.34,0,0,0-4.4-1,12.11,12.11,0,0,0-3.38.47A8.28,8.28,0,0,0,278,5.17a6.72,6.72,0,0,0-2.63,5.56,6.28,6.28,0,0,0,1.5,4.51,10.27,10.27,0,0,0,3.73,2.49,39.15,39.15,0,0,0,4.87,1.61,24,24,0,0,1,4.87,1.85,10.57,10.57,0,0,1,3.73,3.24,9.61,9.61,0,0,1,1.5,5.73,10.51,10.51,0,0,1-1,4.7,10.4,10.4,0,0,1-2.68,3.46,11.72,11.72,0,0,1-3.9,2.13,14.8,14.8,0,0,1-4.6.72,18.26,18.26,0,0,1-7.13-1.36,13,13,0,0,1-5.59-4.56Z"/><path d="M304.93,32.92a9.36,9.36,0,0,0,3.73,3.71,11,11,0,0,0,5.23,1.22,10.41,10.41,0,0,0,3.43-.56,8.57,8.57,0,0,0,2.8-1.55,7.25,7.25,0,0,0,1.88-2.4,7.14,7.14,0,0,0,.69-3.18,6.14,6.14,0,0,0-.86-3.38,6.84,6.84,0,0,0-2.29-2.18,16.65,16.65,0,0,0-3.24-1.47c-1.2-.41-2.43-.81-3.71-1.22a37.05,37.05,0,0,1-3.7-1.38,12.53,12.53,0,0,1-3.24-2,8.94,8.94,0,0,1-2.3-3.13,11.19,11.19,0,0,1-.86-4.65,10.13,10.13,0,0,1,1-4.62,9.85,9.85,0,0,1,2.76-3.37,12.42,12.42,0,0,1,4-2.05A16.26,16.26,0,0,1,315.06,0,15.48,15.48,0,0,1,321,1.13a11.26,11.26,0,0,1,4.73,3.79l-3.15,2.27a9.15,9.15,0,0,0-3.24-2.9,9.31,9.31,0,0,0-4.4-1,12,12,0,0,0-3.37.47,8.43,8.43,0,0,0-2.8,1.38,6.76,6.76,0,0,0-1.9,2.3,7,7,0,0,0-.72,3.26,6.28,6.28,0,0,0,1.49,4.51,10.31,10.31,0,0,0,3.74,2.49,39,39,0,0,0,4.86,1.61,23.52,23.52,0,0,1,4.87,1.85,10.6,10.6,0,0,1,3.74,3.24,9.61,9.61,0,0,1,1.49,5.73,10.65,10.65,0,0,1-1,4.7,10.43,10.43,0,0,1-2.69,3.46,11.53,11.53,0,0,1-3.9,2.13,14.69,14.69,0,0,1-4.59.72A18.35,18.35,0,0,1,307,39.81a13,13,0,0,1-5.59-4.56Z"/><path d="M334.64,1h24V4.32H338.3V18.26h19v3.32h-19V36.85h21.19v3.32H334.64Z"/><path d="M367.45,1h4.71L396,35.3h.11V1h3.65V40.17h-4.7L371.22,5.87h-.11v34.3h-3.66Z"/><path d="M442.76,34a16.68,16.68,0,0,1-6.53,5.48,19.48,19.48,0,0,1-8,1.66A21.67,21.67,0,0,1,420,39.65a18.66,18.66,0,0,1-6.39-4.26,19.75,19.75,0,0,1-4.15-6.53A22.53,22.53,0,0,1,408,20.58a22.28,22.28,0,0,1,1.49-8.24,19.62,19.62,0,0,1,4.15-6.5A18.73,18.73,0,0,1,420,1.55,21.3,21.3,0,0,1,428.21,0a19.48,19.48,0,0,1,7.44,1.41,14.75,14.75,0,0,1,6.06,4.73l-3,2.49a10.81,10.81,0,0,0-4.67-4,14.17,14.17,0,0,0-5.84-1.27,17.11,17.11,0,0,0-6.89,1.33,15.26,15.26,0,0,0-5.23,3.65,16.26,16.26,0,0,0-3.32,5.48,19.62,19.62,0,0,0-1.16,6.8,19.63,19.63,0,0,0,1.16,6.81,16.26,16.26,0,0,0,3.32,5.48,15.39,15.39,0,0,0,5.23,3.65,17.28,17.28,0,0,0,6.89,1.33,14.13,14.13,0,0,0,3.1-.36,13.84,13.84,0,0,0,3.12-1.11,14.72,14.72,0,0,0,2.91-1.88,12.14,12.14,0,0,0,2.43-2.74Z"/><path d="M449.46,1h24V4.32H453.11V18.26h19v3.32h-19V36.85H474.3v3.32H449.46Z"/></g></g></svg>