<?xml version="1.0" encoding="utf-8"?>
<!-- Generator: Adobe Illustrator 25.0.1, SVG Export Plug-In . SVG Version: 6.00 Build 0)  -->
<svg version="1.1" id="Camada_1" xmlns="http://www.w3.org/2000/svg" xmlns:xlink="http://www.w3.org/1999/xlink" x="0px" y="0px"
	 viewBox="0 0 558.3 132.9" style="enable-background:new 0 0 558.3 132.9;" xml:space="preserve">
<style type="text/css">
	.st0{fill:#008C2E;}
</style>
<path class="st0" d="M64.1,59.1c-0.7,4.8-2.4,8.5-3.9,8.4s-2.1-4.3-1.4-9.1s2.4-8.6,3.9-8.4C64.1,50.2,64.7,54.2,64.1,59.1
	 M26.4,60.3c1.8,0,3.3,1.5,3.2,3.3c0,0,0,0,0,0c-0.1,1.8-1.7,3.2-3.5,3.1c-1.7-0.1-3-1.5-3.1-3.2C23.1,61.8,24.6,60.3,26.4,60.3
	C26.4,60.3,26.4,60.3,26.4,60.3 M68.1,79.3c29.6-63.2-29.9-65.7-20.3-1.9c-9.9,6-21.1,6.9-25.1-0.5c34.6,2.4,18.8-41.7-5.4-24.3
	c-4.5-15,10-27.3,28-18.9l0.3-16.9C22.7,6.6-15,25.4,6.3,66.9c-5.7,29,25.6,39.2,49.4,23.8c4.1,4.5,14.7,8,24.7,1.5l0.2-12.8
	C74.9,84,65.2,83,68.1,79.3"/>
<path class="st0" d="M170.3,62.8c-1.3,0.1-2.5-0.9-2.6-2.2c-0.1-1.3,0.9-2.5,2.2-2.6c0.2,0,0.4,0,0.5,0c1.4,0,2.4,1.1,2.4,2.5
	C172.7,61.8,171.6,62.8,170.3,62.8 M200.5,65.9c-3.7-5.5-9.4-7.5-15.9-7.6C169.5,27,140.7,65,166.3,73.5c6.6,0.9,2.6,7.7-3.4,7.3
	c-6.2-0.4-6.5-8.6-6.1-13.7c-0.5-10.6-19.7-5.5-16.7,9.7c-43.6,32.4-57.7-56.2-0.9-41.7l0.2-15C60,7.8,77.1,133.6,148.5,89.6
	c17.9,11.3,34.6-3,34.8-13.9c5.4,0,7.9,2.4,7.8,6.1l-0.2,12.7l11.8,0.2l0.2-13.3c-0.1-4.7,3.3-6.7,7.6-6.9l0.2-13.3
	C206.5,60,201,63.2,200.5,65.9"/>
<path class="st0" d="M250.6,67.7c-1.1-0.9-0.6-3.3,1.1-5.6s3.9-3.5,5-2.7s0.7,3.3-1,5.6S251.8,68.5,250.6,67.7 M252.5,80.3
	c43.6-18,4.1-57.2-16.7-16.6l-3.9,0l2.9-31l-13-0.1l-2.4,29.2l-4.4-0.1l-0.2,13.2l3.1,0.2l-0.3,21.3l13.1,0.2l0.2-16.1
	c-0.1-1.8,3.4-3,5.5,2.6c6.4,19.7,28.6,20.4,37.4,12l0.2-15c-6.9,4.8-15.6,8.1-21.3,0.2"/>
<path class="st0" d="M305.2,95.9c-0.4,8.2-2,14.8-3.4,14.8s-2.3-6.8-1.9-15.1s1.9-14.8,3.5-14.7S305.7,87.7,305.2,95.9 M338.9,62.2
	C333.7,50,322.6,48.2,316,49l-3.3-49l-13.9,0.2l3.5,55.5c-20.9,20.2-23.5,75.8-1.5,77.2c24-1.9,17.1-55.8,16.7-60.4
	c-2.9-11,9.2-6.2,10.1,1.5l1,25.2l14.2,0.2l0.4-21.1c0.3-9.1,11-8.9,11,0.4L354,95.8l15,0.2l0.3-16.8
	C367.3,49.5,344.9,54.2,338.9,62.2"/>
<path class="st0" d="M475.9,80.2c-2-0.1-3.5-2.4-3.5-5.4s1.7-5.3,3.6-5.3s3.4,2.5,3.4,5.4S477.8,80.2,475.9,80.2 M443.1,62.4
	c-0.7,4.5-2.5,8-3.8,7.8s-1.9-4-1.3-8.6s2.5-8,3.9-7.8S443.8,57.8,443.1,62.4 M401.5,116.8c-1.8-0.3-3-2-2.8-3.8
	c0-1.8,1.5-3.3,3.4-3.4c1.8,0.3,3,2,2.7,3.8C404.7,115.4,403.2,116.9,401.5,116.8 M541.7,58.5c-14.9-1.2-39.5,20.3-51.8,23.4
	c14.4-33.3-43.1-35.7-30,5.5c-5.9,2.6-11.1,0.6-13.2-2.7c13.1-16.7,18.6-43.3-2.5-47.2C431.3,35.4,418,57.4,427.6,84
	c-2.9,1.2-8.7,2.9-8.7,2.9l0.3-19.3l-14.1-0.2c-4,10.4-14.4,15.7-16.2,13.7c-2.2-7.4,7.8-15.3,26.9-16.2L416,50
	c-24.8,0.8-41,13.5-43.6,28c-0.9,21.3,18.7,20.3,30.7,11.9v4.7c-23.6,8.5-23.5,35.1-4,36.9c18,1.7,20.7-15.9,19.5-26.5l16.6-11.4
	c5.5,10.7,29.5,9.6,40.9,2.8c4.7,3.8,16.9,2.2,20.8-1l33.9-20c10.2-6.2,12.8,3.6,9.5,7.1c-5,5-14.6,7.8-16.8,8.3l-0.3,15
	C561.6,104.4,569.5,58.4,541.7,58.5"/>
<path class="st0" d="M521,30.8l7.4,12.5l-29.3,18L490.2,50L521,30.8z"/>
</svg>
