<svg id="logo" xmlns="http://www.w3.org/2000/svg" width="107.855" height="38.449"><path id="Shape" d="M12.106 23.92H0V.006h12.3l-1.4 2.459H2.684v8.16h7.879l-1.4 2.464H2.684v8.368h10.825l-1.4 2.462z" transform="translate(94.346 .402)" fill="#173c47"/><path id="Shape-2" data-name="Shape" d="M0 0h2.7v24H0z" transform="translate(38.668 .333)" fill="#173c47"/><path id="Rectangle-path" transform="translate(17.729 .409)" fill="#173c47" d="M0 0h2.69v23.918H0z"/><path id="Shape-3" data-name="Shape" d="M5.253 14.279A9.578 9.578 0 0 0 10.12 11.9a6.791 6.791 0 0 0 1.841-4.789A6.61 6.61 0 0 0 10.12 2.4 9.371 9.371 0 0 0 3.341 0H0v2.489h3.134c3.852 0 6.1 1.779 6.1 4.718C9.234 13.369 0 12.18 0 12.18l14.4 17.2h3.529z" transform="translate(22.094 .322)" fill="#173c47"/><path id="Shape-4" data-name="Shape" d="M2.761 24.092H0L10.879 0h2.515l10.87 24.09h-2.9l-4.108-9.274H6.9l-4.139 9.275zm9.349-20.95L8 12.357h8.163z" transform="translate(44.62 .238)" fill="#173c47"/><path id="Shape-5" data-name="Shape" d="M19.115 13.633v6.287a11.245 11.245 0 0 1-6.9 2.391c-5.788 0-9.428-4.236-9.428-9.946V12.3c0-5.334 3.779-9.81 9.053-9.81a10.142 10.142 0 0 1 7.26 2.732l1.736-2.052A12.491 12.491 0 0 0 11.959 0C4.8 0 0 5.81 0 12.37v.065C0 19.272 4.637 24.74 12.131 24.74a14.438 14.438 0 0 0 9.569-3.656V11.027z" transform="translate(68.919)" fill="#173c47"/><path id="Shape-6" data-name="Shape" d="M9.864 21.8c-4.57 0-7.187-3.07-7.187-7.745V0H0v14.627c0 5.717 3.5 9.849 9.534 9.849a8.847 8.847 0 0 0 6.516-2.614v-3.055A7.65 7.65 0 0 1 9.864 21.8z" transform="translate(0 .413)" fill="#173c47"/><path id="Shape-7" data-name="Shape" d="M0 0v10.627" transform="translate(0 .413)" fill="none"/><path id="Shape-8" data-name="Shape" d="M.987 3.39H3.8v-.927H.987V.923h3.234V0H0v6.026h4.318v-.917H.987V3.39z" transform="translate(.233 32.284)" fill="#173c47"/><path id="Shape-9" data-name="Shape" d="M1.078 6.027H0L2.287 0h.97l2.206 6.025H4.387l-.629-1.768H1.724l-.646 1.769zm1.685-4.581l-.7 1.918h1.371z" transform="translate(8.745 32.284)" fill="#173c47"/><path id="Shape-10" data-name="Shape" d="M3.6 3.585v.074a3.253 3.253 0 0 1-.067.755 1.194 1.194 0 0 1-1.263.865 1.171 1.171 0 0 1-.981-.406A1.857 1.857 0 0 1 1.022 3.6V0H0v3.743a2.288 2.288 0 0 0 .4 1.615 2.273 2.273 0 0 0 1.867.815A2.136 2.136 0 0 0 4.542 4.6a3.108 3.108 0 0 0 .075-.688V0H3.6z" transform="translate(18.635 32.275)" fill="#173c47"/><path id="Shape-11" data-name="Shape" d="M0 .923h1.733v5.11H2.75V.923h1.723V0H0v.923z" transform="translate(34.314 32.277)" fill="#173c47"/><path id="Shape-12" data-name="Shape" d="M3.9 2.463H1.013V0H0v6.033h1.013V3.386H3.9v2.647h1.02V0H3.9v2.463z" transform="translate(43.495 32.277)" fill="#173c47"/><path id="Shape-13" data-name="Shape" d="M.989 3.39H3.8v-.927H.989V.923h3.232V0H0v6.026h4.32v-.917H.989V3.39z" transform="translate(53.971 32.284)" fill="#173c47"/><path id="Shape-14" data-name="Shape" d="M1 6.027H0V0h2.322a2.611 2.611 0 0 1 1.743.378 1.71 1.71 0 0 1 .647 1.432 1.581 1.581 0 0 1-1.29 1.67l1.64 2.545h-1.2L2.291 3.569H1v2.457zM1 .876v1.8h1.517a2.8 2.8 0 0 0 .557-.057.771.771 0 0 0 .626-.806.885.885 0 0 0-.3-.721 1.405 1.405 0 0 0-.962-.216z" transform="translate(63.436 32.284)" fill="#173c47"/><path id="Shape-15" data-name="Shape" d="M2.882 4.515L1.194 0H0v6.026h1L.927 1.838l1.567 4.188h.767l1.6-4.255-.095 4.255h1V0h-1.19L2.882 4.515z" transform="translate(73.336 32.284)" fill="#173c47"/><path id="Shape-16" data-name="Shape" d="M1.078 6.027H0L2.281 0h.989l2.185 6.025H4.378l-.63-1.768H1.724l-.646 1.769zm1.677-4.582l-.7 1.92h1.372z" transform="translate(83.635 32.284)" fill="#173c47"/><path id="Shape-17" data-name="Shape" d="M1.011 0H0v6.033h3.8V5.1H1.011V0z" transform="translate(93.622 32.277)" fill="#173c47"/><path id="Shape-18" data-name="Shape" d="M.987 5.109V3.39H3.8v-.927H.987V.923h3.234V0H0v6.026h4.32v-.917z" transform="translate(102.147 32.284)" fill="#173c47"/></svg>